<svg width="800" height="172" viewBox="0 0 800 172"
  xmlns="http://www.w3.org/2000/svg">
  <path fill="#2B6CDE" d="M.405 86.04C.405 38.057 38.088.374
86.572.374c25.626 0 49.49 11.053 64.564 29.644 2.763 3.516 3.768 5.778 3.768
8.29 0 4.774-4.27 8.792-9.294 8.792-3.267
0-6.03-1.256-8.292-4.018-13.062-16.33-30.145-24.62-50.494-24.62-37.682 0-66.07
29.141-66.07 67.578 0 38.436 28.388 67.577 66.07 67.577 20.349 0 37.432-8.541
50.494-24.619 2.262-2.763 5.025-4.02 8.292-4.02 5.024 0 9.294 4.02 9.294 8.793 0
2.512-1.005 4.773-3.768 8.288-14.57 18.591-38.688 29.645-64.564 29.645-48.484
0-86.167-37.683-86.167-85.664M190.829 161.153V13.187c0-5.78 4.02-10.301
9.798-10.301 5.528 0 9.798 4.521 9.798 10.3v140.682h70.591c5.277 0 9.045 3.769
9.045 8.792 0 4.773-3.768 8.793-9.045 8.793H201.13c-6.03
0-10.301-4.522-10.301-10.3M531.986 81.769h37.933c20.851 0 33.412-11.557
33.412-30.397 0-18.591-12.813-30.649-33.412-30.649h-37.933v61.046zm105.51
81.143c0 4.773-4.018 8.792-9.294 8.792-3.015
0-5.779-1.758-8.542-5.276l-49.992-67.074h-37.682v62.301c0 5.527-4.272
10.05-9.798 10.05-5.778 0-9.798-4.523-9.798-10.05V13.187c0-5.528 4.27-10.05
10.048-10.05h48.235c31.653 0 53.007 19.344 53.007 47.983 0 22.107-12.561
38.688-32.91 45.22l43.461 59.035c2.009 2.512 3.265 5.025 3.265 7.537zM799.03
162.912c0 4.773-4.02 8.792-9.044 8.792-2.512
0-5.022-1.255-7.788-4.02l-79.133-80.89c-1.759-2.01-3.014-4.272-3.014-6.784
0-2.511 1.255-4.773 3.267-7.034l71.845-68.582C778.18 1.63 780.19.374
782.7.374c5.026 0 9.044 4.02 9.044 8.793 0 2.763-1.255 5.023-4.27 7.788L721.655
80.01l73.607 75.617c2.763 2.26 3.768 4.271 3.768 7.285zM694.523 10.674v150.73c0
5.778-4.27 10.3-9.796 10.3-5.78 0-9.798-4.522-9.798-10.3V10.675c0-5.778
4.019-10.3 9.798-10.3 5.525 0 9.796 4.522 9.796 10.3zM474.434 155.503L410.875
6.783C408.867 2.26 405.852 0 401.581 0c-4.27 0-7.285 2.26-9.295 6.783l-63.557
148.72c-1.005 2.513-1.508 4.523-1.508 6.281 0 5.024 4.27 9.546 9.546 9.546 4.271
0 7.536-2.511 9.296-6.531l12.112-28.829.449-1.066 7.285-17.585 35.672-87.927
34.668 87.927 7.538 17.585 13.314 29.895c2.01 4.02 5.023 6.531 9.546 6.531 5.024
0 9.546-4.522 9.546-9.546 0-1.758-.503-3.768-1.76-6.281"></path>
</svg>
